<?xml version="1.0" encoding="utf-8"?>
<!-- Generator: Adobe Illustrator 22.0.1, SVG Export Plug-In . SVG Version: 6.00 Build 0)  -->
<svg version="1.1" id="Layer_1" xmlns="http://www.w3.org/2000/svg" xmlns:xlink="http://www.w3.org/1999/xlink" x="0px" y="0px"
	 viewBox="0 0 205.6 38.7" style="enable-background:new 0 0 205.6 38.7;" xml:space="preserve">
<style type="text/css">
	.st0{fill:#7A7A7A;}
	.st1{fill:#99999A;}
	.st2{fill:#F05D24;}
</style>
<path class="st0" d="M0,0h20.9v5.2H6.1v6.8h13V17h-13v12.3H0V0z"/>
<path class="st0" d="M30.8,29.4h-5.7V0h5.7V29.4z"/>
<path class="st0" d="M50.6,8.1c1.5,0.7,2.8,1.7,3.8,3.2c0.9,1.3,1.5,2.8,1.7,4.5c0.2,1,0.2,2.4,0.2,4.3H40.4
	c0.1,2.2,0.8,3.7,2.3,4.6c0.9,0.5,1.9,0.8,3.1,0.8c1.3,0,2.3-0.3,3.2-1c0.4-0.4,0.8-0.9,1.2-1.5H56c-0.2,1.3-0.9,2.6-2.1,3.9
	c-1.9,2.1-4.7,3.2-8.2,3.2c-2.9,0-5.4-0.9-7.6-2.7c-2.2-1.8-3.3-4.7-3.3-8.7c0-3.8,1-6.6,3-8.7c2-2,4.6-3,7.8-3
	C47.4,7.1,49.1,7.4,50.6,8.1z M42.1,13c-0.8,0.8-1.3,1.9-1.5,3.4h9.8c-0.1-1.5-0.6-2.7-1.5-3.4c-0.9-0.8-2-1.2-3.4-1.2
	C44,11.7,42.9,12.2,42.1,13z"/>
<path class="st0" d="M75.7,8.1c1.5,0.7,2.8,1.7,3.8,3.2c0.9,1.3,1.5,2.8,1.7,4.5c0.2,1,0.2,2.4,0.2,4.3H65.5
	c0.1,2.2,0.8,3.7,2.3,4.6c0.9,0.5,1.9,0.8,3.1,0.8c1.3,0,2.3-0.3,3.2-1c0.4-0.4,0.8-0.9,1.2-1.5H81c-0.2,1.3-0.9,2.6-2.1,3.9
	c-1.9,2.1-4.7,3.2-8.2,3.2c-2.9,0-5.4-0.9-7.6-2.7c-2.2-1.8-3.3-4.7-3.3-8.7c0-3.8,1-6.6,3-8.7c2-2,4.6-3,7.8-3
	C72.5,7.1,74.2,7.4,75.7,8.1z M67.2,13c-0.8,0.8-1.3,1.9-1.5,3.4h9.8c-0.1-1.5-0.6-2.7-1.5-3.4c-0.9-0.8-2-1.2-3.4-1.2
	C69.1,11.7,68,12.2,67.2,13z"/>
<path class="st1" d="M101.2,0h6.1v24.1h12.9v5.3h-19V0z"/>
<path class="st1" d="M160.2,7.6c1.4,0.6,2.5,1.6,3.3,3.1V7.6h5.5v20.6c0,2.8-0.5,4.9-1.4,6.3c-1.6,2.4-4.7,3.7-9.3,3.7
	c-2.8,0-5-0.5-6.8-1.6c-1.8-1.1-2.7-2.7-2.9-4.9h6.2c0.2,0.7,0.4,1.1,0.8,1.4c0.6,0.5,1.6,0.8,3.1,0.8c2,0,3.4-0.7,4.1-2.1
	c0.5-0.9,0.7-2.3,0.7-4.4v-1.4c-0.5,0.9-1.1,1.6-1.8,2.1c-1.1,0.9-2.6,1.3-4.4,1.3c-2.8,0-5-1-6.7-2.9c-1.7-2-2.5-4.6-2.5-8
	c0-3.2,0.8-5.9,2.4-8.1c1.6-2.2,3.9-3.3,6.8-3.3C158.4,7.1,159.3,7.3,160.2,7.6z M162.1,23.2c0.9-1,1.4-2.6,1.4-4.8
	c0-2.1-0.4-3.6-1.3-4.7c-0.9-1.1-2-1.6-3.5-1.6c-2,0-3.4,0.9-4.1,2.8c-0.4,1-0.6,2.2-0.6,3.7c0,1.3,0.2,2.4,0.6,3.4
	c0.8,1.8,2.1,2.7,4.1,2.7C160.1,24.7,161.2,24.2,162.1,23.2z"/>
<path class="st1" d="M180,5.4h-5.8V0.2h5.8V5.4z M174.2,7.6h5.8v21.7h-5.8V7.6z"/>
<path class="st1" d="M184.2,29.4l7.4-11l-7.1-10.7h7l3.6,6.3l3.5-6.3h6.8l-7.1,10.6l7.4,11.1h-7.1l-3.7-6.5l-3.8,6.5H184.2z"/>
<polygon class="st0" points="96.9,7.7 92.9,7.7 92.9,0.1 87.4,0.1 87.4,7.7 83.4,7.7 83.4,12.2 87.4,12.2 87.4,29.5 92.9,29.5 
	92.9,12.2 96.9,12.2 "/>
<path class="st2" d="M144.4,17c-0.3-1.8-0.9-3.4-1.9-4.9c-0.8-1.1-1.7-2.1-2.8-2.8c-1.5-1.1-3.1-1.8-5-2c-0.3,0-0.6-0.1-0.9-0.1
	c-0.5,0-1,0-1.6,0c-0.5,0.1-0.9,0.1-1.4,0.2c-1,0.2-1.9,0.5-2.8,0.9c-0.8,0.4-1.6,0.9-2.4,1.5c-1.6,1.4-2.7,3-3.4,5
	c-0.5,1.4-0.8,2.9-0.7,4.5c0.1,1.3,0.4,2.5,0.9,3.7c0.8,2.1,1.8,4.1,2.9,6c0.8,1.4,1.7,2.7,2.6,4c0.7,1,1.5,2,2.3,2.9
	c0.6,0.7,1.2,1.4,2,2c0.2,0.2,0.4,0.3,0.7,0.4c0.1,0,0.2,0,0.3,0c0.8-0.4,1.4-1,2-1.7c1.4-1.5,2.6-3.1,3.8-4.9
	c0.9-1.3,1.7-2.7,2.5-4.1c1-1.8,1.9-3.7,2.5-5.7C144.5,20.3,144.6,18.7,144.4,17z M133,25c-3.5,0-6.3-2.9-6.3-6.4s2.8-6.4,6.3-6.4
	s6.3,2.9,6.3,6.4S136.5,25,133,25z"/>
</svg>
